<?xml version="1.0" standalone="no"?>
<!DOCTYPE svg PUBLIC "-//W3C//DTD SVG 20010904//EN"
 "http://www.w3.org/TR/2001/REC-SVG-20010904/DTD/svg10.dtd">
<svg version="1.0" xmlns="http://www.w3.org/2000/svg"
 width="256.000000pt" height="256.000000pt" viewBox="0 0 256.000000 256.000000"
 preserveAspectRatio="xMidYMid meet">

<g transform="translate(0.000000,256.000000) scale(0.100000,-0.100000)"
fill="#000000" stroke="none">
<path d="M584 2126 c-65 -30 -120 -85 -150 -150 l-24 -51 0 -645 0 -645 24
-51 c30 -65 85 -120 150 -150 l51 -24 646 0 646 0 61 31 c69 34 104 71 138
144 l24 50 0 645 0 645 -24 51 c-30 65 -85 120 -150 150 l-51 24 -645 0 -645
0 -51 -24z m1361 -70 c59 -27 96 -67 119 -128 15 -38 16 -109 14 -663 -3 -583
-4 -622 -22 -655 -26 -49 -55 -79 -101 -103 -40 -22 -47 -22 -660 -25 -554 -2
-625 -1 -663 14 -61 23 -101 60 -128 119 l-24 50 0 605 c0 375 4 619 10 641
13 45 47 96 81 121 63 47 68 47 714 47 l610 1 50 -24z"/>
<path d="M1252 1668 c-8 -8 -12 -63 -12 -180 l0 -168 -171 -2 c-151 -3 -173
-5 -183 -20 -8 -13 -8 -23 0 -35 10 -16 32 -18 182 -21 l172 -2 2 -172 c3
-150 5 -172 21 -182 12 -8 22 -8 35 0 15 10 17 32 20 182 l2 172 172 2 c150 3
172 5 182 21 8 12 8 22 0 35 -10 15 -32 17 -183 20 l-171 2 0 161 c0 91 -4
169 -10 180 -12 21 -40 25 -58 7z"/>
</g>
</svg>
