<?xml version="1.0" standalone="no"?>
<!DOCTYPE svg PUBLIC "-//W3C//DTD SVG 20010904//EN"
 "http://www.w3.org/TR/2001/REC-SVG-20010904/DTD/svg10.dtd">
<svg version="1.0" xmlns="http://www.w3.org/2000/svg"
 width="512.000000pt" height="512.000000pt" viewBox="0 0 512.000000 512.000000"
 preserveAspectRatio="xMidYMid meet">

<g transform="translate(0.000000,512.000000) scale(0.100000,-0.100000)"
fill="#000000" stroke="none">
<path d="M2543 4257 c-17 -9 -1293 -1219 -1430 -1355 l-33 -33 0 -980 0 -980
25 -24 24 -25 556 0 556 0 24 25 25 24 0 534 c0 584 1 598 59 667 16 20 53 49
82 65 46 26 65 30 129 30 64 0 83 -4 129 -30 29 -16 66 -45 82 -65 58 -69 59
-83 59 -665 0 -523 0 -533 21 -559 l20 -26 560 0 560 0 24 25 25 24 0 975 0
976 -282 278 c-704 692 -1131 1108 -1151 1119 -12 7 -26 12 -32 12 -5 0 -20
-5 -32 -12z m682 -832 l645 -629 0 -888 0 -888 -440 0 -440 0 0 481 c0 544 -3
574 -69 676 -69 107 -171 175 -295 195 -223 37 -454 -126 -496 -351 -6 -31
-10 -252 -10 -527 l0 -474 -435 0 -435 0 0 888 0 887 657 633 c362 348 661
631 665 630 5 -2 298 -286 653 -633z"/>
</g>
</svg>
