<?xml version="1.0" standalone="no"?>
<!DOCTYPE svg PUBLIC "-//W3C//DTD SVG 20010904//EN"
 "http://www.w3.org/TR/2001/REC-SVG-20010904/DTD/svg10.dtd">
<svg version="1.0" xmlns="http://www.w3.org/2000/svg"
 width="768.000000pt" height="768.000000pt" viewBox="0 0 768.000000 768.000000"
 preserveAspectRatio="xMidYMid meet">

<g transform="translate(0.000000,768.000000) scale(0.100000,-0.100000)"
fill="#000000" stroke="none">
<path d="M3390 6833 c-1112 -61 -2027 -877 -2214 -1973 -153 -894 234 -1809
985 -2332 561 -391 1273 -519 1941 -348 202 52 434 148 612 254 43 26 82 45
86 44 5 -2 30 -35 56 -75 47 -69 1108 -1307 1189 -1387 182 -179 386 -222 459
-97 45 77 40 189 -14 330 -39 101 -106 200 -232 346 -57 66 -318 368 -579 671
l-475 550 44 50 c375 413 590 920 621 1463 24 417 -56 812 -238 1186 -118 239
-254 428 -451 625 -201 201 -388 335 -635 455 -289 141 -556 212 -880 235
-136 10 -157 10 -275 3z m398 -428 c938 -133 1651 -886 1711 -1805 67 -1025
-673 -1917 -1711 -2065 -137 -20 -417 -19 -559 1 -214 29 -405 88 -604 184
-811 391 -1251 1270 -1070 2140 104 504 403 940 845 1234 233 155 565 278 850
315 111 14 426 12 538 -4z"/>
</g>
</svg>
